<?xml version="1.0" encoding="UTF-8"?>
<!DOCTYPE svg PUBLIC "-//W3C//DTD SVG 1.1//EN" "http://www.w3.org/Graphics/SVG/1.1/DTD/svg11.dtd">
<svg xmlns="http://www.w3.org/2000/svg" version="1.1" width="2480px" height="2480px" style="shape-rendering:geometricPrecision; text-rendering:geometricPrecision; image-rendering:optimizeQuality; fill-rule:evenodd; clip-rule:evenodd" xmlns:xlink="http://www.w3.org/1999/xlink">
<g><path style="opacity:1" fill="#202120" d="M 1853.5,150.5 C 1854.83,227.33 1855.5,304.497 1855.5,382C 1855.33,459.167 1855.17,536.333 1855,613.5C 1553.74,777.215 1252.24,940.548 950.5,1103.5C 949.333,949.168 949.167,794.834 950,640.5C 1251.15,477.011 1552.32,313.678 1853.5,150.5 Z"/></g>
<g><path style="opacity:1" fill="#202120" d="M 1500.5,884.5 C 1501.83,961.497 1502.5,1038.83 1502.5,1116.5C 1502.17,1193.83 1501.83,1271.17 1501.5,1348.5C 1199.76,1511.45 898.261,1674.79 597,1838.5C 596.333,1683.83 596.333,1529.17 597,1374.5C 898.332,1211.3 1199.5,1047.97 1500.5,884.5 Z"/></g>
<g><path style="opacity:1" fill="#202120" d="M 1854.5,1237.5 C 1855.67,1392 1855.83,1546.67 1855,1701.5C 1561.09,1860.54 1267.25,2019.71 973.5,2179C 965.561,2183.14 957.561,2186.98 949.5,2190.5C 949.333,2036.17 949.5,1881.83 950,1727.5C 1251.64,1564.27 1553.14,1400.93 1854.5,1237.5 Z"/></g>
</svg>
